<svg xmlns="http://www.w3.org/2000/svg" width="24.088" height="27.53" viewBox="0 0 24.088 27.53">
  <g id="android" transform="translate(-2.25 0.002)">
    <path id="Path_1075" data-name="Path 1075" d="M24.617,13.5A1.725,1.725,0,0,0,22.9,15.221V22.1a1.721,1.721,0,1,0,3.441,0V15.221A1.725,1.725,0,0,0,24.617,13.5Zm-20.647,0A1.725,1.725,0,0,0,2.25,15.221V22.1a1.721,1.721,0,1,0,3.441,0V15.221A1.725,1.725,0,0,0,3.971,13.5Zm2.581,9.463a2.581,2.581,0,0,0,2.581,2.581v3.441a1.721,1.721,0,1,0,3.441,0V25.544h3.441v3.441a1.721,1.721,0,1,0,3.441,0V25.544a2.581,2.581,0,0,0,2.581-2.581V13.5H6.551Z" transform="translate(0 -3.177)" fill="#cd7867"/>
    <path id="Path_1076" data-name="Path 1076" d="M23.327,8.6a7.742,7.742,0,0,0-3.484-5.637l.86-1.722a.861.861,0,1,0-1.54-.769L18.3,2.2l-.223-.089a7.749,7.749,0,0,0-4.886,0l-.223.089L12.1.474a.861.861,0,1,0-1.54.769l.86,1.722A7.741,7.741,0,0,0,7.938,8.6v.86H23.375V8.6ZM13.051,6.882a.86.86,0,0,1,0-1.721h0a.86.86,0,0,1,0,1.721Zm5.162,0a.86.86,0,1,1,0-1.721h.005a.86.86,0,0,1,0,1.721Z" transform="translate(-1.338 0)" fill="#cd7867"/>
  </g>
</svg>
