<svg xmlns="http://www.w3.org/2000/svg" viewBox="0 0 28.97 28.98"><defs><style>.cls-1{fill:none;stroke:#cd7867;stroke-width:1.5px;}</style></defs><g id="Layer_2" data-name="Layer 2"><g id="Layer_1-2" data-name="Layer 1"><path id="facebook-rect-2" class="cls-1" d="M5.77.75a5,5,0,0,0-5,5V23.21a5,5,0,0,0,5,5h9.48V17.48H12.38V13.62h2.84v-3.3c0-2.6,1.68-5,5.54-5a20.57,20.57,0,0,1,2.72.15L23.39,9.1H20.92c-1.39,0-1.61.64-1.61,1.71v2.82h4.2l-.19,3.87h-4V28.23h3.9a5,5,0,0,0,5-5V5.77a5,5,0,0,0-5-5H5.77Z"/></g></g></svg>