<svg xmlns="http://www.w3.org/2000/svg" viewBox="0 0 28.97 28.97"><defs><style>.cls-1,.cls-2{fill:none;}.cls-2{stroke:#cd7867;stroke-width:1.5px;}</style></defs><g id="Layer_2" data-name="Layer 2"><g id="Layer_1-2" data-name="Layer 1"><path class="cls-1" d="M21,8h2.35a.77.77,0,0,0,.77-.76V4.91a.77.77,0,0,0-.77-.76H21a.77.77,0,0,0-.77.76V7.25A.77.77,0,0,0,21,8Z"/><path class="cls-2" d="M11.92,14.77a2.7,2.7,0,0,0,2.7,2.71h0a2.69,2.69,0,0,0,2.7-2.69h0a2.71,2.71,0,1,0-5.41,0Z"/><path class="cls-2" d="M18.4,9.49h9.82V7.59A6.86,6.86,0,0,0,21.36.75H7.62A6.86,6.86,0,0,0,.75,7.59v1.9h10.1A6.54,6.54,0,0,1,18.4,9.49Zm1.85-4.58A.77.77,0,0,1,21,4.15h2.35a.77.77,0,0,1,.77.76V7.25a.77.77,0,0,1-.77.76H21a.77.77,0,0,1-.77-.76Z"/><path class="cls-2" d="M20.53,12a6.39,6.39,0,0,1,.62,2.75,6.53,6.53,0,0,1-13,0A6.69,6.69,0,0,1,8.72,12h-8v9.36a6.85,6.85,0,0,0,6.87,6.83H21.36a6.85,6.85,0,0,0,6.86-6.83V12Z"/></g></g></svg>