<svg xmlns="http://www.w3.org/2000/svg" width="24.298" height="28.855" viewBox="0 0 24.298 28.855">
  <path id="bxl-apple" d="M29.781,25.485a15.661,15.661,0,0,1-1.55,2.789,14.215,14.215,0,0,1-2,2.417,3.883,3.883,0,0,1-2.569,1.13,6.435,6.435,0,0,1-2.371-.566,6.806,6.806,0,0,0-2.556-.563,7.041,7.041,0,0,0-2.626.563,7.009,7.009,0,0,1-2.27.6,3.648,3.648,0,0,1-2.625-1.16,14.989,14.989,0,0,1-2.091-2.5A17.313,17.313,0,0,1,6.916,23.8a16.1,16.1,0,0,1-.927-5.234,9.561,9.561,0,0,1,1.254-5,7.374,7.374,0,0,1,2.626-2.659,7.059,7.059,0,0,1,3.552-1.005,8.32,8.32,0,0,1,2.748.641,8.871,8.871,0,0,0,2.18.641,13.18,13.18,0,0,0,2.418-.756,7.977,7.977,0,0,1,3.283-.583,6.975,6.975,0,0,1,5.465,2.877,6.08,6.08,0,0,0-3.224,5.521,6.088,6.088,0,0,0,2,4.59,6.574,6.574,0,0,0,2,1.31c-.161.467-.331.911-.51,1.339ZM24.215,3.577a6.162,6.162,0,0,1-1.577,4.036,5.382,5.382,0,0,1-4.465,2.2,4.487,4.487,0,0,1-.032-.547A6.315,6.315,0,0,1,19.815,5.19a6.45,6.45,0,0,1,2.038-1.531A6.068,6.068,0,0,1,24.186,3q.029.291.028.579Z" transform="translate(-5.989 -2.999)" fill="#cd7867"/>
</svg>
