<svg xmlns="http://www.w3.org/2000/svg" viewBox="0 0 136.64 38.06"><defs><style>.cls-1{fill:#235149;}.cls-2{isolation:isolate;}.cls-3{fill:#cd7867;}</style></defs><g id="Layer_2" data-name="Layer 2"><g id="Layer_1-2" data-name="Layer 1"><path class="cls-1" d="M29.78,29.07a16.76,16.76,0,0,0,1.14-10.43,16.23,16.23,0,0,0-5.07-8.8A102.42,102.42,0,0,1,16,0L15,1.45a33.21,33.21,0,0,0-4.38,8.32c1.22.37,2.48.72,3.77,1.06a17.15,17.15,0,0,1,9.31,6.36,18.67,18.67,0,0,1,3.71,11.3v5.8Z"/><path class="cls-1" d="M.61,10.72C-.87,18.84.36,26,4.07,30.76A17.13,17.13,0,0,0,11,36a27.7,27.7,0,0,0,11,2H23a86.14,86.14,0,0,1-7.48-6.65A82.49,82.49,0,0,1,6.8,21.18,67.35,67.35,0,0,1,.61,10.72Z"/><path class="cls-1" d="M8.45,19.8a79.58,79.58,0,0,0,8.48,9.93,84.57,84.57,0,0,0,8.37,7.32V28.49a16.44,16.44,0,0,0-3.25-9.91A15,15,0,0,0,13.87,13c-1.33-.35-2.65-.72-3.92-1.1h0l-1-.3H9c-2.33-.73-4.58-1.53-6.72-2.39A63.85,63.85,0,0,0,8.45,19.8Z"/><g class="cls-2"><path class="cls-3" d="M25.28,38.06V.24l2.48.07c5.38,0,12.56,1.52,12.56,11.25,0,7.59-5.59,11-12.56,11V38.06Zm2.48-16c5.93,0,10.07-4.07,10.07-10.84C37.83.66,29.42.66,27.76.79Z"/><path class="cls-3" d="M47.7.24V37.57H59.78v.49H45.15V.24Z"/><path class="cls-3" d="M70.54.24,80.2,38.06H77.65l-6.56-25.4L64.54,37.57l-.14.49h-.49l.07-.49,6.9-25.94L67.92.24Z"/><path class="cls-3" d="M107.59,32.26V.24h.48V38.06l-21-33.4v33.4h-.55V3.76L84.34.24H87.1Z"/><path class="cls-3" d="M136.64.24V.79h-11V38.06h-2.49V.79h-11V.24Z"/></g></g></g></svg>