<svg xmlns="http://www.w3.org/2000/svg" viewBox="0 0 28.97 28.97"><defs><style>.cls-1{fill:none;stroke:#cd7867;stroke-width:1.5px;}</style></defs><g id="Layer_2" data-name="Layer 2"><g id="Layer_1-2" data-name="Layer 1"><path id="pinterest-2" class="cls-1" d="M14.49.75A13.66,13.66,0,0,1,28.22,14.34v.15A13.88,13.88,0,0,1,14.49,28.22a14.57,14.57,0,0,1-3.89-.56c.26-.42.51-.88.77-1.38a16.46,16.46,0,0,0,1.07-3.41c.12-.49.29-1.13.5-1.92a3,3,0,0,0,1.29,1.19,5.94,5.94,0,0,0,5.09-.21A8.34,8.34,0,0,0,23.17,17C24.4,12.32,22.82,7.83,18.59,6,13.49,4.49,7.8,6.41,5.82,11,5,14,5,17.93,8,19.2a.54.54,0,0,0,.43,0A3.54,3.54,0,0,0,9,17.35,1.23,1.23,0,0,0,8.79,17c-1.66-2.25-.65-5.6.91-7.28,2.64-2.27,6.75-2.64,9.18-.48,2.15,2.51,1.66,6.41.28,8.9A3.89,3.89,0,0,1,16,20.27a2.13,2.13,0,0,1-2.22-2.06,2.28,2.28,0,0,1,.05-.58c.32-1.62,1.19-3.35,1.22-4.86-.07-1.27-.7-2.07-1.87-2.08-1.86.24-2.61,2-2.64,3.56A5.44,5.44,0,0,0,11,16.42c-.4,1.6-.71,2.89-.92,3.87A42.6,42.6,0,0,0,9,25.52c0,.56,0,1.07,0,1.55A13.87,13.87,0,0,1,.75,14.49,13.82,13.82,0,0,1,14.49.75Z"/></g></g></svg>