<svg xmlns="http://www.w3.org/2000/svg" viewBox="0 0 32.64 24.77"><defs><style>.cls-1{fill:none;stroke:#cd7867;stroke-width:1.5px;}</style></defs><g id="Layer_2" data-name="Layer 2"><g id="Layer_1-2" data-name="Layer 1"><path id="youtube" class="cls-1" d="M13.1,16.68V7.38L21.51,12,13.1,16.67ZM31.57,5.77a7.34,7.34,0,0,0-1.24-3.28,4.27,4.27,0,0,0-3.12-1.4C22.86.75,16.32.75,16.32.75h0s-6.54,0-10.89.33A4.34,4.34,0,0,0,2.3,2.48,7.5,7.5,0,0,0,1.06,5.77a53.31,53.31,0,0,0-.31,5.35v2.52A53.31,53.31,0,0,0,1.06,19,7.46,7.46,0,0,0,2.3,22.27a5.06,5.06,0,0,0,3.43,1.42c2.49.25,10.59.33,10.59.33s6.54,0,10.9-.35a4.28,4.28,0,0,0,3.12-1.4A7.33,7.33,0,0,0,31.57,19a53.15,53.15,0,0,0,.32-5.35V11.13a53.34,53.34,0,0,0-.32-5.36Z"/></g></g></svg>